<?xml version="1.0" encoding="utf-8"?>
<!-- Generator: Adobe Illustrator 17.1.0, SVG Export Plug-In . SVG Version: 6.00 Build 0)  -->
<!DOCTYPE svg PUBLIC "-//W3C//DTD SVG 1.1//EN" "http://www.w3.org/Graphics/SVG/1.1/DTD/svg11.dtd">
<?xml-stylesheet type="text/css" href="public/css/style.css" ?>

<svg version="1.1" id="Layer_1" xmlns="http://www.w3.org/2000/svg" xmlns:xlink="http://www.w3.org/1999/xlink" x="0px" y="0px"
	 viewBox="0 0 367.9 83.4" enable-background="new 0 0 367.9 83.4" xml:space="preserve">
<g>
	<path fill="#FFFFFF" d="M43.6,24.3c-0.2-0.5-0.8-0.8-1.3-0.8h-0.5c-0.5,0-1.1,0.3-1.3,0.8L24.9,57.9c-0.2,0.5-0.2,1,0.1,1.4
		c0.3,0.4,0.7,0.6,1.3,0.6h5.5c1,0,1.9-0.6,2.3-1.5l1.7-3.7h12.9l1.7,3.6c0.5,1.1,1.1,1.5,2.2,1.5h5.5c0.5,0,1-0.2,1.3-0.6
		c0.3-0.4,0.3-0.9,0.1-1.4L43.6,24.3z M38.3,47.9l3.7-8.2h0l3.8,8.2H38.3z"/>
	<path fill="#FFFFFF" d="M83.2,24H61.1c-0.8,0-1.5,0.7-1.5,1.5v5.4c0,0.8,0.7,1.5,1.5,1.5h6.6v26.1c0,0.8,0.7,1.5,1.5,1.5h6
		c0.8,0,1.5-0.7,1.5-1.5V32.3h6.6c0.8,0,1.5-0.7,1.5-1.5v-5.4C84.6,24.7,84,24,83.2,24z"/>
	<path fill="#FFFFFF" d="M111.1,41.5l9.9-15.3c0.3-0.4,0.4-1,0.1-1.4c-0.3-0.5-0.8-0.8-1.4-0.8h-7.3c-0.6,0-1.1,0.4-1.2,0.7
		l-5.4,8.6l-5.3-8.6c-0.2-0.3-0.7-0.7-1.2-0.7H92c-0.6,0-1.1,0.3-1.3,0.7c-0.2,0.4-0.2,1,0.1,1.5l9.9,15.3L90.4,57.7
		c-0.3,0.4-0.4,1-0.1,1.4c0.3,0.5,0.8,0.8,1.4,0.8h6.9c0.7,0,1.1-0.5,1.3-0.7l6-9.5l6.1,9.4c0.2,0.4,0.8,0.7,1.3,0.7h6.9
		c0.6,0,1.1-0.3,1.3-0.7c0.2-0.4,0.2-1-0.1-1.5L111.1,41.5z"/>
	<path fill="#FFFFFF" d="M214.6,41.6c2.6-1.7,5.2-4.4,5.2-7.8c0-5.5-4.9-9.8-11.2-9.8h-11.6c-0.8,0-1.5,0.7-1.5,1.5v33
		c0,0.8,0.7,1.5,1.5,1.5h12.4c6.4,0,11.4-4.4,11.4-10.1C220.6,45.4,217.2,42.9,214.6,41.6z M203.7,31.7h3.9c1.9,0,3.5,1.4,3.5,3.4
		c0,2-1.6,3.6-3.5,3.6h-3.9V31.7z M208.3,52.3h-4.5v-7.1h4c1.9,0,4.1,1.5,4.1,3.5C211.9,50.7,210.2,52.3,208.3,52.3z"/>
	<path fill="#FFFFFF" d="M257.7,24h-6.1c-0.8,0-1.5,0.7-1.5,1.5v20.2c0,3.3-2.5,5.8-5.7,5.8c-3.2,0-5.6-2.5-5.6-5.8V25.5
		c0-0.8-0.7-1.5-1.5-1.5h-6.1c-0.8,0-1.5,0.7-1.5,1.5V46c0,7.9,6.6,14.4,14.7,14.4c8.1,0,14.8-6.4,14.8-14.4V25.5
		C259.2,24.7,258.5,24,257.7,24z"/>
	<path  fill="#FFFFFF" d="M278.5,24h-6c-0.8,0-1.5,0.7-1.5,1.5v33c0,0.8,0.7,1.5,1.5,1.5h6c0.8,0,1.5-0.7,1.5-1.5v-33
		C280,24.7,279.3,24,278.5,24z"/>
	<path fill="#FFFFFF" d="M314,51.5h-11.3V25.5c0-0.8-0.7-1.5-1.5-1.5h-5.9c-0.8,0-1.5,0.7-1.5,1.5v33c0,0.8,0.7,1.5,1.5,1.5H314
		c0.8,0,1.5-0.7,1.5-1.5V53C315.4,52.2,314.8,51.5,314,51.5z"/>
	<path fill="#FFFFFF" d="M340.4,24h-22.1c-0.8,0-1.5,0.7-1.5,1.5v5.4c0,0.8,0.7,1.5,1.5,1.5h6.6v26.1c0,0.8,0.7,1.5,1.5,1.5h6
		c0.8,0,1.5-0.7,1.5-1.5V32.3h6.6c0.8,0,1.5-0.7,1.5-1.5v-5.4C341.9,24.7,341.2,24,340.4,24z"/>
	<path fill="#FFFFFF" d="M358.9,0H9c-5,0-9,4.1-9,9v65.3c0,5,4.1,9,9,9h349.8c5,0,9-4.1,9-9V9C367.9,4.1,363.9,0,358.9,0z
		 M361.2,74.4c0,1.3-1,2.3-2.3,2.3H9c-1.3,0-2.3-1-2.3-2.3V9c0-1.3,1-2.3,2.3-2.3h349.8c1.3,0,2.3,1,2.3,2.3V74.4z"/>
	<path fill="#FFFFFF" class="rotate" d="M178,28.4L159.8,18c-1-0.6-2.2-0.6-3.2,0l-18.1,10.5c-1,0.6-1.6,1.6-1.6,2.8v20.9c0,1.2,0.6,2.2,1.6,2.8
		l18.1,10.5c1,0.6,2.2,0.6,3.2,0L178,55c1-0.6,1.6-1.6,1.6-2.8V31.2C179.6,30.1,179,29,178,28.4z M169.7,39l-5.5,4
		c-0.4,0.3-0.5,0.7-0.4,1.1l2.1,6.5c0.3,0.9-0.8,1.7-1.6,1.1l-5.5-4c-0.4-0.3-0.8-0.3-1.2,0l-5.5,4c-0.8,0.6-1.9-0.2-1.6-1.1
		l2.1-6.5c0.1-0.4,0-0.9-0.4-1.1l-5.5-4c-0.8-0.6-0.4-1.8,0.6-1.8h6.8c0.4,0,0.8-0.3,1-0.7l2.1-6.5c0.3-0.9,1.6-0.9,1.9,0l2.1,6.5
		c0.1,0.4,0.5,0.7,1,0.7h6.8C170.1,37.2,170.5,38.4,169.7,39z"/>
</g>
</svg>


